<svg width="259" height="308" viewBox="0 0 259 308" fill="none" xmlns="http://www.w3.org/2000/svg">
<path d="M234.298 213.924V225.117L145.041 253.099L66.9421 231.833V247.503H0V124.38H89.2562L158.43 150.124C169.587 154.601 178.512 166.913 178.512 180.345H200.826C219.793 180.345 234.298 194.896 234.298 213.924ZM44.6281 225.117V146.766H22.314V225.117H44.6281ZM210.868 209.447C208.636 204.969 205.289 202.731 200.826 202.731H140.579C135 202.731 128.306 201.612 122.727 200.492L97.0661 191.538L103.76 170.271L130.537 179.226C133.884 179.226 156.198 180.345 156.198 180.345C156.198 175.868 153.967 172.51 149.504 171.391L84.7934 146.766H66.9421V208.327L145.041 229.594L210.868 209.447Z" fill="#C86AF4"/>
<path d="M119.411 0C95.7645 0 80 23.4298 80 46.8595C80 63.3384 87.8822 85.9091 95.7645 93.719C103.647 101.529 111.529 156.198 127.293 156.198C163.079 156.198 143.058 101.529 158.822 101.529C174.587 101.529 154.566 156.198 190.351 156.198C206.116 156.198 213.998 101.529 221.88 93.719C229.762 85.9091 237.645 63.3384 237.645 46.8595C237.645 23.4298 221.88 0 198.233 0C174.587 0 174.587 7.80992 158.822 7.80992C143.058 7.80992 143.058 0 119.411 0ZM119.411 15.6198C135.176 15.6198 143.058 23.4298 158.822 23.4298C174.587 23.4298 182.469 15.6198 198.233 15.6198C211.397 15.6198 221.88 31.2397 221.88 46.8595C221.88 60.5269 215.101 78.9583 207.613 86.3777C200.835 93.0942 190.824 140.11 186.41 140.11C184.755 140.11 182.469 131.831 182.469 121.757C182.469 105.824 177.976 85.9091 158.822 85.9091C139.668 85.9091 135.176 105.824 135.176 121.757C135.176 131.831 132.89 140.11 131.235 140.11C126.82 140.11 116.81 93.0942 110.031 86.3777C102.543 78.9583 95.7645 60.5269 95.7645 46.8595C95.7645 31.2397 106.248 15.6198 119.411 15.6198Z" fill="#C86AF4"/>
<path d="M193.078 41.3504C185.714 21.5355 161.615 30.3719 159.339 40.2793C156.259 29.7025 132.83 21.8033 125.6 41.3504C117.567 63.0397 156.527 82.4529 159.339 85.6661C162.15 83.1223 201.111 62.638 193.078 41.3504Z" fill="#D2D1D1"/>
<path d="M196.826 36.5306C196.023 33.9868 194.684 31.7107 192.81 29.8364C191.069 27.962 188.793 26.4893 186.517 25.5521C185.312 25.0165 184.107 24.7488 182.902 24.481C182.233 24.3471 181.697 24.3471 181.028 24.2132H179.154L180.76 25.0165L182.367 25.8198C183.438 26.3554 184.509 26.8909 185.446 27.5603C187.455 28.7653 189.195 30.238 190.802 31.8446C192.408 33.4512 193.613 35.3256 194.818 37.4678C195.354 38.5388 195.889 39.6099 196.291 40.681C196.559 41.2165 196.693 41.886 196.96 42.4215L197.63 44.162C197.764 43.4926 197.764 42.8231 197.764 42.2876C197.764 41.6182 197.764 40.9488 197.63 40.4132C197.496 39.0744 197.228 37.7355 196.826 36.5306Z" fill="#D2D1D1"/>
<path d="M199.504 32.9157C199.37 31.9785 199.236 31.0413 198.969 30.1042C198.433 28.2298 197.362 26.4893 196.023 25.0166C194.684 23.5438 193.078 22.4728 191.337 21.9372C190.4 21.6694 189.597 21.4017 188.659 21.2678C188.258 21.2678 187.722 21.1339 187.321 21.1339C186.919 21.1339 186.383 21.1339 185.982 21.2678C186.383 21.5356 186.785 21.6694 187.187 21.9372C187.455 22.0711 187.856 22.3389 188.258 22.4728C189.061 22.8744 189.731 23.2761 190.4 23.8116C191.739 24.7488 193.078 25.8199 194.149 26.8909C195.22 28.0959 196.157 29.4347 197.094 30.9075C197.496 31.5769 197.898 32.3802 198.299 33.1835C198.433 33.5852 198.701 33.9868 198.835 34.3885C198.969 34.7901 199.236 35.1918 199.37 35.7273C199.504 35.1918 199.504 34.7901 199.504 34.2546V32.9157Z" fill="#D2D1D1"/>
<path d="M122.253 40.681C122.655 39.6099 123.19 38.405 123.726 37.4678C124.797 35.3256 126.136 33.4512 127.742 31.8446C129.349 30.238 131.089 28.7653 133.098 27.5603C134.035 26.8909 135.106 26.3554 136.177 25.8198L137.783 25.0165L139.39 24.2132H137.516C136.846 24.2132 136.311 24.3471 135.641 24.481C134.436 24.7488 133.231 25.0165 132.026 25.5521C129.75 26.4893 127.608 27.962 125.868 29.8364C124.127 31.7107 122.655 33.9868 121.851 36.5306C121.45 37.7355 121.182 39.0744 121.048 40.2793C120.914 40.9488 120.914 41.6182 120.914 42.1537C120.914 42.8231 120.914 43.4926 121.048 44.0281L121.717 42.2876C121.851 41.7521 121.985 41.2165 122.253 40.681Z" fill="#D2D1D1"/>
<path d="M124.529 27.0248C125.6 25.8198 126.939 24.7488 128.278 23.8116C128.947 23.4099 129.75 22.8744 130.42 22.4727C130.821 22.205 131.223 22.0711 131.625 21.8033C132.026 21.5355 132.428 21.4017 132.83 21.1339C132.428 21.1339 131.893 21 131.491 21C131.089 21 130.554 21 130.152 21.1339C129.215 21.2678 128.412 21.5355 127.474 21.8033C125.6 22.6066 123.993 23.6777 122.655 25.0165C121.316 26.4893 120.245 28.2298 119.709 30.1041C119.441 31.0413 119.307 31.9785 119.174 32.9157V34.3884C119.174 34.924 119.174 35.3256 119.307 35.8612C119.441 35.4595 119.709 35.0579 119.843 34.5223C120.111 33.9868 120.245 33.5851 120.512 33.1835C120.914 32.3802 121.316 31.5769 121.717 30.9074C122.521 29.4347 123.458 28.0959 124.529 27.0248Z" fill="#D2D1D1"/>
<path d="M126.939 65.9851L126.805 66.2529C127.474 68.2612 128.545 69.8678 129.617 71.4744C130.688 73.081 132.026 74.4198 133.365 75.6248C134.704 76.8298 136.177 78.0347 137.783 79.1058C139.39 80.1769 141.131 80.9802 143.139 81.5157L143.273 81.2479C140.595 78.5703 137.917 76.0265 135.24 73.4827C132.428 71.0727 129.75 68.3951 126.939 65.9851Z" fill="#D2D1D1"/>
<path d="M121.316 70.0016L121.182 70.2694C122.119 72.5455 123.324 74.4198 124.663 76.1603C126.002 77.9008 127.474 79.5074 129.081 80.9802C130.688 82.4529 132.294 83.7917 134.169 85.1306C136.043 86.3355 137.917 87.5405 140.193 88.2099L140.327 87.9421C137.248 84.8628 134.035 81.9173 130.955 78.838C127.742 75.8926 124.529 72.8132 121.316 70.0016Z" fill="#D2D1D1"/>
<path d="M185.446 75.6248C186.785 74.286 188.124 72.9471 189.195 71.4744C190.266 70.0017 191.337 68.2612 192.007 66.2529L191.873 65.9851C189.061 68.3951 186.383 71.0727 183.572 73.4827C180.894 76.0265 178.217 78.5703 175.539 81.2479L175.673 81.5157C177.681 80.9802 179.421 80.043 181.028 79.1058C182.635 78.0347 183.974 76.8298 185.446 75.6248Z" fill="#D2D1D1"/>
<path d="M187.722 78.838C184.643 81.9173 181.43 84.8628 178.35 87.9421L178.484 88.2099C180.76 87.4066 182.635 86.3355 184.509 85.1306C186.383 83.9256 187.99 82.5868 189.597 80.9802C191.203 79.5074 192.676 77.9008 194.015 76.1603C195.354 74.4198 196.559 72.5455 197.496 70.2694L197.362 70.0016C194.149 72.8132 190.936 75.8926 187.722 78.838Z" fill="#D2D1D1"/>
<path d="M94.0981 271.675C94.0981 269.214 92.853 267.984 90.3628 267.984C88.5024 267.984 86.5615 268.709 84.54 270.159C81.3613 272.43 79.2007 275.491 78.0581 279.344C77.6772 280.618 77.4868 281.673 77.4868 282.508C77.4868 283.328 77.5015 283.907 77.5308 284.244C77.5601 284.581 77.6187 284.925 77.7065 285.276C77.897 286.126 78.0801 286.683 78.2559 286.946C78.4463 287.21 78.5562 287.386 78.5854 287.474C78.6294 287.547 78.6001 287.613 78.4976 287.671C78.2778 287.759 77.9702 287.386 77.5747 286.551C77.0767 285.467 76.8276 284.266 76.8276 282.947C76.8276 281.614 77.0107 280.289 77.377 278.97C77.7432 277.652 78.2485 276.414 78.8931 275.257C79.5376 274.1 80.2993 273.038 81.1782 272.071C82.0571 271.104 83.0093 270.276 84.0347 269.588C86.188 268.108 88.3706 267.369 90.5825 267.369C91.8569 267.369 92.9116 267.757 93.7466 268.533C94.6987 269.397 95.1748 270.584 95.1748 272.093C95.1748 273.587 94.8892 275.096 94.3179 276.619C93.7466 278.128 92.9629 279.615 91.9668 281.08C90.9707 282.544 89.7988 283.943 88.4512 285.276C87.1035 286.595 85.6533 287.752 84.1006 288.748C80.7168 290.945 77.4209 292.044 74.2129 292.044C71.3857 292.044 69.4888 290.806 68.522 288.331C68.1851 287.496 68.0166 286.456 68.0166 285.21C68.0166 283.965 68.2217 282.632 68.6318 281.211C69.0566 279.791 69.6426 278.384 70.3896 276.993C71.1514 275.601 72.0522 274.246 73.0923 272.928C74.147 271.609 75.3042 270.364 76.564 269.192C77.8237 268.021 79.1641 266.951 80.585 265.984C82.0205 265.003 83.4927 264.161 85.0015 263.458C88.2095 261.963 91.2783 261.216 94.208 261.216C97.167 261.216 99.0347 262.146 99.811 264.007C100.045 264.563 100.163 265.083 100.163 265.567C100.163 266.036 100.133 266.446 100.075 266.797C100.016 267.134 99.9429 267.471 99.855 267.808C99.5767 268.76 99.313 269.361 99.064 269.61C98.8296 269.844 98.6611 269.961 98.5586 269.961C98.4707 269.961 98.4268 269.91 98.4268 269.808C98.4268 269.69 98.5 269.537 98.6465 269.346C98.998 268.877 99.2324 268.27 99.3496 267.522C99.4814 266.761 99.5474 266.153 99.5474 265.699C99.5474 265.23 99.4375 264.747 99.2178 264.249C99.0127 263.75 98.6831 263.318 98.229 262.952C97.2769 262.205 96.0317 261.832 94.4937 261.832C92.9556 261.832 91.52 262.066 90.187 262.535C88.854 263.003 87.5063 263.648 86.144 264.468C84.7817 265.289 83.4268 266.255 82.0791 267.369C80.7314 268.482 79.4424 269.683 78.2119 270.972C76.9961 272.247 75.8608 273.58 74.8062 274.971C73.7661 276.363 72.8579 277.747 72.0815 279.124C70.4409 282.068 69.6206 284.625 69.6206 286.792C69.6206 288.99 70.5288 290.44 72.3452 291.143C72.9458 291.377 73.7808 291.495 74.8501 291.495C75.9194 291.495 77.1938 291.202 78.6733 290.616C80.1528 290.03 81.6177 289.239 83.0679 288.243C84.5327 287.247 85.9243 286.089 87.2427 284.771C88.5757 283.453 89.7476 282.061 90.7583 280.596C92.9849 277.403 94.0981 274.429 94.0981 271.675ZM103.415 286.023C99.8257 290.037 96.9692 292.044 94.8452 292.044C92.9849 292.044 92.0547 291.084 92.0547 289.166C92.0547 286.939 92.9702 284.786 94.8013 282.706C98.0972 278.868 101.576 276.949 105.238 276.949C106.337 276.949 107.15 277.286 107.677 277.959C107.838 278.179 107.919 278.384 107.919 278.575C107.919 278.765 107.912 278.89 107.897 278.948C107.897 278.992 107.897 279.051 107.897 279.124L118.795 263.479L123.41 256.954C123.952 257.188 124.457 257.305 124.926 257.305C125.395 257.305 125.819 257.283 126.2 257.239L105.326 286.507C104.477 287.649 103.832 288.558 103.393 289.231C102.968 289.891 102.755 290.418 102.755 290.813C102.755 291.194 102.938 291.385 103.305 291.385C104.726 291.385 106.337 290.726 108.139 289.407C109.794 288.206 111.603 286.404 113.566 284.002C113.932 283.533 114.188 283.226 114.335 283.079L114.818 283.453C114.657 283.614 114.372 283.936 113.961 284.419C113.566 284.903 113.068 285.459 112.467 286.089C111.881 286.719 111.215 287.386 110.468 288.089C109.735 288.792 108.952 289.437 108.117 290.022C106.227 291.37 104.557 292.044 103.107 292.044C101.671 292.044 100.961 291.575 100.976 290.638C100.99 289.686 101.862 288.177 103.59 286.111L103.415 286.023ZM97.0425 284.178C94.9478 286.727 93.9004 288.763 93.9004 290.286C93.9004 291.019 94.2666 291.385 94.999 291.385C96.3027 291.385 98.1191 290.323 100.448 288.199L102.25 286.463C103.29 285.438 104.14 284.456 104.799 283.519L106.754 280.728C107.091 280.054 107.26 279.476 107.26 278.992C107.26 278.509 107.084 278.165 106.732 277.959C106.381 277.74 106.015 277.63 105.634 277.63C105.253 277.63 104.77 277.762 104.184 278.025C103.612 278.274 102.96 278.67 102.228 279.212C100.631 280.354 98.9028 282.01 97.0425 284.178ZM124.069 288.462C123.527 288.462 123.131 288.243 122.882 287.803C121.139 289.781 119.257 291.092 117.235 291.736C116.562 291.941 115.902 292.044 115.258 292.044C114.628 292.044 114.086 291.971 113.632 291.824C113.178 291.678 112.804 291.473 112.511 291.209C111.325 290.184 111.208 288.418 112.16 285.914C112.526 284.932 113.002 284.017 113.588 283.167C114.159 282.317 114.804 281.534 115.521 280.816C116.254 280.083 117.038 279.432 117.873 278.86C119.762 277.586 121.608 276.949 123.41 276.949C124.186 276.949 124.853 277.154 125.409 277.564C125.98 277.959 126.288 278.538 126.332 279.3C126.376 280.047 126.332 280.75 126.2 281.409C126.068 282.068 125.871 282.728 125.607 283.387C125.08 284.734 124.333 286.009 123.366 287.21C123.468 287.635 123.747 287.847 124.201 287.847C124.669 287.847 125.109 287.745 125.519 287.54C125.944 287.32 126.361 287.056 126.771 286.749C127.196 286.426 127.606 286.075 128.002 285.694C128.412 285.298 128.786 284.925 129.123 284.573L129.958 283.65C130.192 283.372 130.36 283.182 130.463 283.079L130.946 283.453C130.756 283.628 130.514 283.877 130.221 284.2C129.928 284.522 129.599 284.866 129.232 285.232C129.232 285.232 128.844 285.613 128.068 286.375C126.559 287.767 125.226 288.462 124.069 288.462ZM114.95 291.209C115.185 291.326 115.514 291.385 115.939 291.385C116.891 291.385 118.114 290.85 119.608 289.781C120.751 288.96 121.769 288.016 122.663 286.946V286.858C122.663 285.613 123.131 284.676 124.069 284.046C124.318 283.87 124.552 283.746 124.772 283.672C125.475 282.178 125.805 280.955 125.761 280.003C125.673 278.494 125.116 277.74 124.091 277.74C122.362 277.74 119.938 279.688 116.818 283.584C114.811 286.104 113.866 288.067 113.983 289.473C113.983 290.279 114.306 290.857 114.95 291.209ZM131.1 291.583C130.705 291.509 130.265 291.473 129.782 291.473C129.005 291.473 128.324 291.546 127.738 291.692L135.363 280.794C136.315 279.461 136.806 278.67 136.835 278.421C136.894 277.938 136.74 277.696 136.374 277.696C135.832 277.696 134.484 279.036 132.331 281.717L130.924 283.453C130.807 283.511 130.683 283.482 130.551 283.365C130.434 283.233 130.404 283.138 130.463 283.079C130.888 282.625 131.364 282.054 131.891 281.365C132.433 280.662 132.997 279.988 133.583 279.344C135.019 277.747 136.212 276.949 137.165 276.949C138.776 276.949 139.289 277.776 138.703 279.432C138.585 279.783 138.329 280.237 137.934 280.794L133.319 287.21L133.429 287.452C137.121 283.409 139.743 280.735 141.295 279.432C142.775 278.201 143.874 277.483 144.591 277.278C145.324 277.059 145.917 276.949 146.371 276.949C146.84 276.949 147.235 277.015 147.558 277.146C147.895 277.278 148.166 277.447 148.371 277.652C148.751 278.033 148.935 278.494 148.92 279.036C148.92 279.563 148.817 280.105 148.612 280.662C148.422 281.219 148.092 281.878 147.624 282.64C146.642 284.207 144.987 286.25 142.658 288.77C141.691 289.781 141.186 290.374 141.142 290.55C141.098 290.711 141.076 290.835 141.076 290.923C141.076 291.26 141.522 291.429 142.416 291.429C143.324 291.429 144.167 291.246 144.943 290.879C145.734 290.499 146.503 290.022 147.25 289.451C148.012 288.88 148.729 288.257 149.403 287.583C150.092 286.895 150.707 286.243 151.249 285.628C151.791 284.998 152.245 284.456 152.611 284.002C152.978 283.533 153.227 283.226 153.358 283.079L153.82 283.453C153.673 283.614 153.41 283.936 153.029 284.419C152.648 284.903 152.172 285.459 151.601 286.089C151.044 286.719 150.407 287.386 149.689 288.089C148.986 288.792 148.239 289.437 147.448 290.022C145.602 291.37 143.932 292.044 142.438 292.044C141.12 292.044 140.204 291.714 139.691 291.055C139.53 290.85 139.45 290.608 139.45 290.33C139.45 290.052 139.486 289.737 139.56 289.385C139.647 289.019 139.845 288.558 140.153 288.001C140.841 286.814 141.815 285.511 143.075 284.09C144.35 282.669 145.185 281.709 145.58 281.211C145.976 280.713 146.291 280.281 146.525 279.915C146.964 279.212 147.184 278.67 147.184 278.289C147.184 277.762 146.833 277.498 146.129 277.498C144.679 277.498 142.284 279.139 138.944 282.42C137.26 284.061 135.326 286.221 133.144 288.902L131.1 291.583ZM151.007 290.726C151.007 291.165 151.359 291.392 152.062 291.407C152.765 291.421 153.468 291.268 154.171 290.945C154.889 290.623 155.6 290.213 156.303 289.715C157.006 289.217 157.687 288.66 158.346 288.045C159.005 287.415 159.621 286.792 160.192 286.177C160.763 285.562 161.276 284.983 161.73 284.441L162.873 283.079L163.356 283.453L162.213 284.771C158.126 289.62 154.691 292.044 151.908 292.044C151.103 292.044 150.502 291.883 150.106 291.561C149.696 291.238 149.491 290.887 149.491 290.506C149.491 290.125 149.513 289.81 149.557 289.561C149.586 289.312 149.66 289.041 149.777 288.748C149.894 288.44 150.07 288.082 150.304 287.671C150.524 287.261 150.824 286.763 151.205 286.177L154.633 281.233L160.302 273.257H158.566C158.126 273.257 157.907 273.155 157.907 272.95C157.907 272.73 158.185 272.62 158.742 272.62H160.741L164.806 266.907C165.832 267.068 166.85 267.068 167.86 266.907L163.62 272.62H169.289C169.699 272.62 169.904 272.73 169.904 272.95C169.904 273.155 169.721 273.257 169.354 273.257H163.136L154.04 285.628C152.472 287.84 151.579 289.202 151.359 289.715C151.125 290.228 151.007 290.564 151.007 290.726ZM172.628 288.462C172.086 288.462 171.691 288.243 171.442 287.803C169.699 289.781 167.816 291.092 165.795 291.736C165.121 291.941 164.462 292.044 163.817 292.044C163.188 292.044 162.646 291.971 162.191 291.824C161.737 291.678 161.364 291.473 161.071 291.209C159.884 290.184 159.767 288.418 160.719 285.914C161.085 284.932 161.562 284.017 162.147 283.167C162.719 282.317 163.363 281.534 164.081 280.816C164.813 280.083 165.597 279.432 166.432 278.86C168.322 277.586 170.167 276.949 171.969 276.949C172.746 276.949 173.412 277.154 173.969 277.564C174.54 277.959 174.848 278.538 174.892 279.3C174.936 280.047 174.892 280.75 174.76 281.409C174.628 282.068 174.43 282.728 174.167 283.387C173.639 284.734 172.892 286.009 171.925 287.21C172.028 287.635 172.306 287.847 172.76 287.847C173.229 287.847 173.668 287.745 174.079 287.54C174.503 287.32 174.921 287.056 175.331 286.749C175.756 286.426 176.166 286.075 176.562 285.694C176.972 285.298 177.345 284.925 177.682 284.573L178.517 283.65C178.751 283.372 178.92 283.182 179.022 283.079L179.506 283.453C179.315 283.628 179.074 283.877 178.781 284.2C178.488 284.522 178.158 284.866 177.792 285.232C177.792 285.232 177.404 285.613 176.627 286.375C175.119 287.767 173.786 288.462 172.628 288.462ZM163.51 291.209C163.744 291.326 164.074 291.385 164.499 291.385C165.451 291.385 166.674 290.85 168.168 289.781C169.311 288.96 170.329 288.016 171.222 286.946V286.858C171.222 285.613 171.691 284.676 172.628 284.046C172.877 283.87 173.112 283.746 173.332 283.672C174.035 282.178 174.364 280.955 174.32 280.003C174.232 278.494 173.676 277.74 172.65 277.74C170.922 277.74 168.498 279.688 165.377 283.584C163.371 286.104 162.426 288.067 162.543 289.473C162.543 290.279 162.865 290.857 163.51 291.209ZM195.348 287.627C193.268 287.627 191.334 287.349 189.547 286.792C187.497 288.492 185.958 289.671 184.933 290.33C183.029 291.517 181.088 292.11 179.11 292.11C176.854 292.11 175.397 291.458 174.738 290.154C174.547 289.759 174.452 289.371 174.452 288.99C174.452 288.609 174.518 288.301 174.65 288.067C174.782 287.833 174.943 287.649 175.133 287.518C175.529 287.239 175.99 287.1 176.518 287.1C177.25 287.1 177.616 287.43 177.616 288.089C177.616 288.382 177.499 288.638 177.265 288.858C177.016 289.063 176.686 289.166 176.276 289.166C175.851 289.166 175.536 289.092 175.331 288.946V289.1C175.331 290.711 176.649 291.517 179.286 291.517C181.117 291.517 183.19 290.711 185.504 289.1L188.778 286.529C186.698 285.752 185.036 284.654 183.791 283.233C182.589 281.885 181.945 280.398 181.857 278.772C181.769 277.176 182.296 275.813 183.439 274.686C184.64 273.499 186.266 272.906 188.317 272.906C191.173 272.906 193.576 274.129 195.524 276.575C196.11 277.322 196.608 278.121 197.018 278.97C201.72 274.458 204.796 271.558 206.247 270.269L209.85 267.149C214.713 263.15 218.295 261.15 220.595 261.15C220.858 261.15 220.99 261.194 220.99 261.282C220.99 261.385 220.866 261.48 220.617 261.568C220.382 261.656 220.119 261.846 219.826 262.139C219.533 262.432 219.108 262.923 218.551 263.611L216.398 266.358L201.522 286.133C205.609 284.917 208.795 282.742 211.081 279.607C211.813 278.611 212.304 277.776 212.553 277.103C212.89 276.209 213.095 275.762 213.168 275.762C213.212 275.762 213.278 275.828 213.366 275.96C213.468 276.077 213.505 276.341 213.476 276.751C213.461 277.146 213.358 277.623 213.168 278.179C212.978 278.721 212.736 279.241 212.443 279.739C211.959 280.574 211.161 281.519 210.048 282.574C207.807 284.756 204.73 286.25 200.819 287.056L197.062 292.022L195.656 291.934C195.187 291.905 194.813 291.89 194.535 291.89C194.271 291.89 194.044 291.905 193.854 291.934L193.239 292.022L196.491 288.001C196.535 287.928 196.579 287.862 196.623 287.803C196.667 287.73 196.703 287.657 196.732 287.583C196.264 287.613 195.802 287.627 195.348 287.627ZM197.326 279.651C197.926 281.189 198.227 282.508 198.227 283.606C198.227 284.705 198.139 285.569 197.963 286.199L206.115 276.333C211.491 270.079 214.823 266.27 216.112 264.908C217.401 263.531 218.354 262.557 218.969 261.985L217.497 262.601C215.519 263.465 212.692 265.486 209.015 268.665L204.401 272.84L197.326 279.651ZM189.306 286.089C192.162 283.541 194.564 281.321 196.513 279.432C195.297 276.663 193.444 274.847 190.954 273.982C190.119 273.704 189.298 273.565 188.493 273.565C187.702 273.565 186.991 273.711 186.361 274.004C185.746 274.283 185.204 274.656 184.735 275.125C183.725 276.136 183.219 277.337 183.219 278.729C183.219 281.175 184.362 283.189 186.647 284.771C187.409 285.298 188.295 285.738 189.306 286.089ZM190.075 286.331C191.686 286.785 193.488 287.012 195.48 287.012C195.993 287.012 196.505 286.99 197.018 286.946C197.355 286.082 197.523 285.247 197.523 284.441C197.523 282.947 197.282 281.519 196.798 280.157C193.502 283.262 191.261 285.32 190.075 286.331ZM220.243 292.044C218.544 292.044 217.694 291.319 217.694 289.869C217.694 287.671 220.104 284.808 224.923 281.277C226.593 280.062 227.516 279.183 227.692 278.641C227.736 278.479 227.758 278.326 227.758 278.179C227.758 278.018 227.677 277.864 227.516 277.718C227.37 277.571 227.047 277.498 226.549 277.498C224.25 277.498 220.683 279.747 215.849 284.244C213.593 286.412 212.025 287.979 211.146 288.946L208.817 291.583C208.202 292.388 207.521 293.326 206.774 294.395L202.292 301.097L198.952 306.37C198.571 306.956 198.351 307.3 198.292 307.403C197.868 307.52 197.399 307.579 196.886 307.579C196.359 307.579 196.029 307.571 195.897 307.557C195.751 307.557 195.597 307.549 195.436 307.535C195.158 307.505 194.887 307.454 194.623 307.381L205.851 292.132L212.97 282.112L221.627 270.533C222.418 270.621 223.012 270.665 223.407 270.665C224.14 270.665 224.652 270.613 224.945 270.511L217.87 279.168L212.641 286.155L212.794 286.331C217.35 281.951 220.712 279.197 222.88 278.069C223.993 277.483 224.821 277.154 225.363 277.081C225.919 276.993 226.417 276.949 226.857 276.949C228.249 276.949 228.944 277.557 228.944 278.772C228.944 281.175 226.74 283.921 222.331 287.012C220.353 288.433 219.225 289.407 218.947 289.935C218.859 290.11 218.815 290.279 218.815 290.44C218.815 291.099 219.335 291.429 220.375 291.429C222.895 291.429 226.11 289.1 230.021 284.441L231.186 283.079L231.669 283.453L230.526 284.771C226.439 289.62 223.012 292.044 220.243 292.044ZM239.096 292.044C237.396 292.044 236.547 291.319 236.547 289.869C236.547 287.671 238.957 284.808 243.776 281.277C245.446 280.062 246.369 279.183 246.544 278.641C246.588 278.479 246.61 278.326 246.61 278.179C246.61 278.018 246.53 277.864 246.369 277.718C246.222 277.571 245.9 277.498 245.402 277.498C243.102 277.498 239.535 279.747 234.701 284.244C232.445 286.412 230.878 287.979 229.999 288.946L227.67 291.583C227.055 292.388 226.374 293.326 225.626 294.395L221.144 301.097L217.804 306.37C217.423 306.956 217.204 307.3 217.145 307.403C216.72 307.52 216.251 307.579 215.739 307.579C215.211 307.579 214.882 307.571 214.75 307.557C214.604 307.557 214.45 307.549 214.289 307.535C214.01 307.505 213.739 307.454 213.476 307.381L224.704 292.132L231.823 282.112L240.48 270.533C241.271 270.621 241.864 270.665 242.26 270.665C242.992 270.665 243.505 270.613 243.798 270.511L236.723 279.168L231.493 286.155L231.647 286.331C236.203 281.951 239.564 279.197 241.732 278.069C242.846 277.483 243.673 277.154 244.215 277.081C244.772 276.993 245.27 276.949 245.709 276.949C247.101 276.949 247.797 277.557 247.797 278.772C247.797 281.175 245.592 283.921 241.183 287.012C239.206 288.433 238.078 289.407 237.799 289.935C237.711 290.11 237.667 290.279 237.667 290.44C237.667 291.099 238.188 291.429 239.228 291.429C241.747 291.429 244.962 289.1 248.874 284.441L250.038 283.079L250.521 283.453L249.379 284.771C245.292 289.62 241.864 292.044 239.096 292.044Z" fill="#D2D1D1"/>
</svg>
